# xmcd
#
# Track frame offsets:
#	150
#	21137
#	42195
#	64479
#	88806
#	112467
#	135813
#	157875
#	173995
#	189507
#	211864
#	235752
#	263174
#	281974
#
# Disc length: 4013 seconds
#
# Revision: 2
# Processed by: cddbd v1.5.2PL0 Copyright (c) Steve Scherf et al.
# Submitted via: EasyCDDAExtractor 12.0.1.1
#
DISCID=c80fab0e
DTITLE=India - Grandes Exitos +
DYEAR=2005
DGENRE=Latin
TTITLE0=Ese Hombre
TTITLE1=Dicen Que Soy
TTITLE2=Nunca Voy A Olvidarte
TTITLE3=La Voz De La Experiencia (With Celia Cruz)
TTITLE4=Sobre El Fuego
TTITLE5=Me Canse De Ser La Otra
TTITLE6=Hazme El Amor (With Oscar D'Leon)
TTITLE7=Que Te Pedi
TTITLE8=Si Vuelves Tu
TTITLE9=Sola
TTITLE10=Seduceme
TTITLE11=Vivir Lo Nuestro (With Marc Anthony)
TTITLE12=No Me Conviene (DJ Nelson Reggaeton Remix) (With Tito Nieves)
TTITLE13=Ese Hombre (Roka Reggaeton Remix)
EXTD=Album contains a bonus DVD\n1. Ese Hombre\n2. Dicen Que Soy\n3. Mi Mayor 
EXTD=Venganza\n4. Costumbres\n5. Me Canse de Ser La Otra
EXTT0=
EXTT1=
EXTT2=
EXTT3=with Celia Cruz
EXTT4=
EXTT5=
EXTT6=with Oscar D'Leon
EXTT7=
EXTT8=
EXTT9=
EXTT10=
EXTT11=with Marc Anthony
EXTT12=with Tito Nieves
EXTT13=
PLAYORDER=
